<?xml version="1.0" encoding="utf-8"?>
<!-- Generator: Adobe Illustrator 20.1.0, SVG Export Plug-In . SVG Version: 6.00 Build 0)  -->
<svg version="1.1" xmlns="http://www.w3.org/2000/svg" xmlns:xlink="http://www.w3.org/1999/xlink" x="0px" y="0px"
	 viewBox="0 0 1190.6 841.9" style="enable-background:new 0 0 1190.6 841.9;" xml:space="preserve">
<style type="text/css">
	.st0{fill:#000000;stroke:#000000;stroke-width:3;stroke-miterlimit:10;}
	.st1{fill:none;stroke:#000000;stroke-width:3;stroke-linecap:round;stroke-miterlimit:10;}
	.st2{fill:none;stroke:#000000;stroke-width:3;stroke-miterlimit:10;}
	.st3{fill:#000000;stroke:#000000;stroke-miterlimit:10;}
	.st4{fill:#000000;}
	.st5{stroke:#FFFFFF;stroke-width:3;stroke-miterlimit:10;}
	.st6{fill:#000000;stroke:#000000;stroke-width:4;stroke-linecap:round;stroke-miterlimit:10;}
	.st7{fill:none;stroke:#000000;stroke-width:4;stroke-linecap:round;stroke-miterlimit:10;}
	.st8{fill:none;stroke:#000000;stroke-width:10;stroke-linecap:round;stroke-miterlimit:10;}
</style>
<g id="Layer_2">
</g>
<g id="Layer_1">
	<path class="st0" d="M430.6,390.9l3.6,3.6c5.4-6,16-12.1,21.6-14.5l-2.1-3.1L430.6,390.9z"/>
	<line class="st1" x1="469.7" y1="438.7" x2="427" y2="479.3"/>
	<line class="st1" x1="523" y1="434.7" x2="567.7" y2="479.3"/>
	<path class="st2" d="M543.7,479.3l8,14c0.3,0.6-0.4,1.1-0.9,0.8l-25.1-18.8L503,492.7l-25.3-13.3l-20.3,14.3l-4-16.7l-1.6,0.2
		c-4.8,0.8-16.2,6.9-17.5,8.2c-0.8,0.8-0.8,2.3,1,4.6c4.1,5.3,14.7,27.3,14.7,27.3l23-13l11,30.3h40.7l4.7-33.7l29.7,13.7l5.3-35.3
		H543.7z"/>
	<path class="st3" d="M564.3,479.3c-2.3-7.7,2-11.3,2-11.3c2.7-8-2.3-11.7-11.3-11s-16.3,9-7.7,22.3H564.3z"/>
	<path class="st3" d="M450,477.3l-1.7-15c0,0-6.7-7-15-1.7c-8.3,5.3-2.7,7.3-2.7,7.3s-5.4,3.7-1.9,7c3.5,3.3,8.2,9,8.2,9
		S443.2,479,450,477.3z"/>
	<circle class="st4" cx="499.8" cy="487.2" r="17.2"/>
	<path class="st2" d="M383.5,336.5c-14,0-47.5-26.5-93-63.5c-14.5,49-12,75-19,103c33,8,50,24.9,50,24.9c0.5-8.1,4-12.9,4-12.9
		c10.5,4.5,33.5,46.7,33.5,46.7c-5,2.7-17,4-17,4s4,10.3,4,20.3c19.2,1.8,31.5-3,39.5-5.5s55.5-52.6,55.5-52.6
		S411.9,374.6,383.5,336.5z M373,423l-32-43c0,0,37,21,53,27C390.5,417.5,373,423,373,423z"/>
	<path class="st2" d="M410.5,369.6l20.1,21.3c8.9-9.9,25.9-13.4,25.9-13.4L441,358L410.5,369.6z"/>
	<polygon class="st0" points="688.3,294.3 680.2,301.4 676,289.7 682.3,285 	"/>
	<path class="st0" d="M693.3,304.8L692,313l19.2,25.8l3.1-11.4L695,304.5C694.5,304.1,693.5,304.2,693.3,304.8z"/>
	<path class="st2" d="M607.8,273.7c29.8-9.1,69.5-27.1,80.2-44.4c4-5,9.7,44.7,15.7,54.3l-15.3,10.7l-6-9.3l-6.3,4.7
		c4,15.3,23.7,54,33.7,60c1.3-14,4.7-22.3,4.7-22.3L694,303.7c22.3-36.3,55-56,55-56c0.7,25,32.3,80.7,32.3,80.7H798
		c-13,34.3-27.7,39.3-27.7,39.3l-8.7-10c0,0-9.3,45.3-8.7,51.3s17,46.8,20,47.9c3,1.1,8.7,2.1,3,8.1c-21,22.2-58.7,40.7-63,39.3
		c-3-6.7-25.7-54.7-138.7-76l9.7,14.7l-5.7,6.3l-42-25.7l7.5-6.8c0,0,77.9,10.8,97.1,28.4l13.1,2.1c-0.8-10.9,17.3-32.7,17.3-32.7
		s23.6,11.6,35.3,24c-7-14.7-2-38.3-5-39.7s-7,9.7-9.7,9.3c-2.7-0.3-8.5-6.5-8.5-6.5l12.8-10.9c-16.4,0-34.7-7.9-34.7-7.9l0.7,14.3
		l-15-5l0.7-8l6.3,2l10-28.3H650l-65.9-78L607.8,273.7z"/>
	<polygon class="st0" points="519.3,292.3 515.5,303 532.3,316.6 536.3,307 	"/>
	<path class="st4" d="M573,339.8c4-0.2,14.4,13.6,14.4,13.6l11.1,4.3c2,0.8,3.8-1.5,2.6-3.3L580.3,325L573,339.8z"/>
	<path class="st2" d="M661.7,383l0.7,14.3l-15-5l0.7-8l6.3,2l10-28.3H650l-65.9-78l23.8-6.3L569,239.7c0,0-13.3,15.3-15.7,21
		c-4-3-15-5.7-15-5.7l-19,37.3c0,0,9.8,7.7,17,14.7c-2,1.3-7.2,19.9-7.2,19.9l10.4,15.8l19.1,33.3l-22.1,32l20.4,4.3l7.7-25.3
		c-5-0.3-2.3-11,2.4-10.3c4.7,0.7,43,6.3,43,6.3v14l-5.7,3.9h-12.1c-7.4-0.7-4.9-6.6,0-7.9l-17.9-2.1l-1,4.4l-5.7-1l-5.7,15
		c39,4,84.3,19,91.7,33.7c3.7-14.7,27-40.7,42.7-52.1C696.3,390.9,669.3,388.3,661.7,383z M600.1,357.7c-2.9,0.2-13.4-7.3-32.4-6.7
		c0,0,9.3-19.7,12.7-26C584,331.3,603.3,355.3,600.1,357.7z"/>
	<path class="st0" d="M410.5,339.7l0,8.7c11.5,3.7,20.7,13.4,20.7,13.4l9.8-3.7c0,0,22.1,26.5,24.7,36.7c1,4,1.5,9.5,1.5,9.5
		l-13.8,6.8l19.7,25.7c0,0,4.3-6.7,12.5-6.2s34,2.4,45-15.6c-12.3,15.5-28.8,7.1-52.5,13.5l-15.5-19.9c-0.5-0.7-0.2-1.6,0.7-1.8
		l13.7-2.9c1.7-0.4,2.6-2.3,1.8-3.9l-15-28.4"/>
	<path class="st0" d="M479.4,363.2c12.3,4.9,28.8,14.6,33.2,20.2c0.4,0.5,1,0.5,1.4,0.1l4-4.1c0.7-0.8,0.7-2,0-2.7l-7.1-7.2
		l-47.2-25.1L479.4,363.2z"/>
	<path class="st2" d="M523,318.7c-6-6.3-74-49-104.7-61.7c0,0,0.3,48-7.8,82.7c0,0,16.5,7.7,26.5,15.7c0,0,4.2-12.7,7.7-8.7
		c20.3,23,38.3,55.3,35.7,56.3c-2.7,1-22.3,2.3-19,4c3.3,1.7,16.7,21.3,16.7,21.3c2.5-2.5,32.7-1.3,42.7-5.3s38-43,38-47
		S529,325,523,318.7z M499.3,390.9c-3.8-7.2-13.8-20.2-22.3-30.6c-7.3-8.9-13.4-16-13.4-16c15.7,10,55.7,25.7,55.7,33.7
		C519.7,381.7,509,387,499.3,390.9z"/>
	<path class="st3" d="M319.5,409.5c-11.5-10.5-39-24-48-23.5v-10c0,0,28,5.4,50,24.9c-1.5-8.2,4-12.9,4-12.9
		c15.5,9.5,33.5,46.7,33.5,46.7c-6.7,2.2-17,4-17,4s5.2,9.6,4,20.3c23.8,0.6,39.5-5.5,39.5-5.5s19.8-14.1,55.5-52.6v9.1
		c-51.8,49.4-47,56-103.5,58c2-13.5-4-31-4-31l12.5-1.2c-2-7.8-10.5-24.8-19.5-31.5L319.5,409.5z"/>
	<path class="st0" d="M357,401.5c0,0,23.3,13.7,31.3,13.3l5.7-7.8c0,0-36.9-15.6-53-27L357,401.5z"/>
	<polygon class="st2" points="542.8,538.7 541.5,521.2 600.1,517 591.2,559.5 545.3,561.3 	"/>
	<polygon class="st0" points="541.5,521.2 541.5,527.5 598.2,526.2 600.1,517 	"/>
	<line class="st2" x1="564.3" y1="560.6" x2="564.3" y2="596.4"/>
	<circle class="st2" cx="551.8" cy="539.1" r="8.3"/>
	<path class="st2" d="M548.5,531.5c-1.2,4.3,2.8,13.9,7.8,14.6"/>
	<path class="st0" d="M551.7,542.9c1.7,0.5,5.7-0.1,7.2-0.3c0.2,0,0.4,0.2,0.3,0.4c-0.6,1-2.1,3.4-4.8,4.1c-3.4,0.8-5.8,0.2-7.1-1
		C551,546.4,551.7,542.9,551.7,542.9z"/>
	<path class="st0" d="M554.9,531.5c-1.6-0.7-6.7,3.6-6.2,5.3c-3.8-0.9-4.9,0-4.9,0C544.1,532.6,550.2,529.7,554.9,531.5z"/>
	<path class="st5" d="M550.7,544.8"/>
	<line class="st2" x1="345.5" y1="596.4" x2="733.5" y2="596.4"/>
	<line class="st2" x1="444.2" y1="596.4" x2="442.5" y2="568.2"/>
	<path class="st2" d="M415.5,575.8c8.9-6.1,36.7-8.8,51.5-4.6l-3.5-43.8l-62.5,2c5.1,7.3,9.6,25.7,11.6,45
		C412.8,575.9,414.3,576.6,415.5,575.8z"/>
	<polygon class="st0" points="401,529.5 404.6,536.7 464.1,534.7 463.5,527.5 	"/>
	<circle class="st2" cx="454.2" cy="548.7" r="8.8"/>
	<path class="st2" d="M451.3,540.3c3.1,2.2,6,3.8,3.9,18.4"/>
	<path class="st0" d="M445.3,548.7c0.8-3.3,4-3.7,9-2.9c0.5,0.1,0.9-0.6,0.7-1.1l-1.5-3.6c-0.3-0.7-1.2-1-1.8-0.6
		c-1.9,1.1-5.4,3.6-6.1,8.2C445.5,549.3,445.2,549.3,445.3,548.7z"/>
	<path class="st0" d="M455.9,550.8c-1.4,2-6.2,5.9-8.5,3.6c0,0,3.1,4.3,9.1,3.1S455.9,550.8,455.9,550.8z"/>
	
		<ellipse transform="matrix(0.9155 -0.4023 0.4023 0.9155 -139.4907 286.4233)" class="st4" cx="612.2" cy="475.3" rx="26.9" ry="8.2"/>
	
		<ellipse transform="matrix(0.7071 -0.7071 0.7071 0.7071 -233.1443 420.6398)" class="st4" cx="391.2" cy="491.7" rx="8.2" ry="26.9"/>
	<path class="st2" d="M399,596.4c0,0-37.8-53.8-36.5-57.6s19-38.1,29-46.1"/>
	<path class="st2" d="M597.2,596.4c8-10.9,32.2-59.9,30.9-71.9c-1.4-12-15.9-49.2-15.9-49.2"/>
	<g>
		<path class="st4" d="M505.7,566.3c-5-3-11.3-5.3-11.3-5.3l9,14.3l6.7-1.3C516,572.7,510.7,569.3,505.7,566.3z"/>
		<path class="st4" d="M525.8,526.5c-12.6-1-44.5,0.6-44.5,0.6c-14.3,4.6-25.6,14.9-24.6,34c0,0,3.2,35.3,20.7,35.3
			s57.4-0.4,57.4-0.4c9.6-12,14.5-27.3,14.5-38.8C549.2,547.7,539.3,526.5,525.8,526.5z M488,583.3l-1.3-8c0,0,15.6,4.7,10.6-2.7
			c-5-7.3-8-11.6-8-11.6l-5.3,2.6l-7.7-11.3l13-13.7l33.7,29.7C530,573,529.7,585,488,583.3z"/>
	</g>
	<path class="st1" d="M387.2,471.3c4.3-0.8,20.8,13.2,20.8,16.8"/>
	<path class="st1" d="M391.2,463.3c3.6-0.7,13.5,8.8,13.5,8.8"/>
	<path class="st1" d="M592.5,467.3c1.5-3.6,15.5-9.5,15.5-9.5"/>
	<path class="st1" d="M585,463.8c1.5-4.7,21.8-12.7,21.8-12.7"/>
	<line class="st6" x1="707.8" y1="521.3" x2="712" y2="518.5"/>
	<path class="st7" d="M720,507.5c0,0,9.5,13.8,8.2,12.4c-1.3-1.4-6-3.4-9.7-3.8c0,0,9-0.3,13.3-0.2"/>
	<path class="st7" d="M727.2,505.5c2,3,10,23,10,23c1,2,0.2-4.7,0-5.3c-0.2-0.7-13.7,4.2-15,5.7c1.8-1.9,24.2-12.3,44.2-6.5"/>
	<path class="st7" d="M733.7,505.5c-1.8,0.8,0,9,0,9s0.7,3.3,4.7,3.3c2.2,0,1.8-5,1.5-6.2C739.5,510.5,736.5,504.2,733.7,505.5z"/>
	<path class="st7" d="M737.2,501.8c-0.3,2.3,3.2,16.3,7,14c3.8-2.3,0.4-16.2-3.5-18.8"/>
	<path class="st7" d="M747,496.2c2.2,4.2,4.8,24.4-1.2,19.9"/>
	<path class="st7" d="M749.5,512.7c1.8-2.2,22.2,4.8,30.5,12.7c-13.2-13.8-20.3-39.8-20.3-39.8c2.2,13.3-0.8,28.1-5.5,26.1
		c-4.7-2.1-2.7-6.4,0.7-11.7"/>
	<path class="st7" d="M758.3,508.3c-0.8-1.5-2.8-3,4.8-3c7.7,0,13.8,2.2,13.8,2.2"/>
	<path class="st7" d="M773.8,499c0,0,2.8-1,4.5,0"/>
	<line class="st7" x1="722.2" y1="528.9" x2="721.2" y2="529.8"/>
	<line class="st7" x1="718.5" y1="516.2" x2="717.7" y2="516.2"/>
	<path class="st8" d="M803,390.9c-8.7-18.2,24-55.7,25.3-23.3c1.2,30.3-7.4,78.7-6.4,92.6c0.1,1,1.3,1.4,1.9,0.7
		c5.1-5.5,21.3-22.2,25.8-22.2"/>
	<ellipse class="st4" cx="865" cy="468.1" rx="3.3" ry="7.2"/>
	<path class="st8" d="M897.7,358c16.3,0,18,31,18,62.7c0,22.3-8.5,46.6-23.3,46.6c-14.8,0-16-29.5-16-55.4
		C876.3,386,881.3,358,897.7,358z"/>
	<path class="st2" d="M749.5,584.5v14.7c0,0.4,0.3,0.6,0.7,0.6c6.6-1.2,11.3-5.6,11.3-7.9c0-2.2-6.7-7.3-11.3-7.9
		C749.8,583.8,749.5,584.1,749.5,584.5z"/>
	<line class="st2" x1="766.4" y1="594" x2="778.5" y2="594"/>
	<path class="st2" d="M786.7,599.8v-15.3c0-0.4,0.3-0.6,0.7-0.6c6.1,1.4,11.3,5.9,11.3,7.9c0,4-10.8,6.7-14.5,6.7"/>
	<path class="st2" d="M802.2,599.8c0-7,8.5-12.3,9.8-12.3s4.1,11.2,2.2,13.2"/>
	<path class="st2" d="M803.6,594.9c0,0,11.3,0.8,13.3-0.9"/>
	<path class="st2" d="M821.8,585.7c0.2,3.3,1.3,7,4.5,7"/>
	<path class="st2" d="M833,586.5c-2.8-0.3-11.2,14.2-11.2,14.2"/>
	<path class="st7" d="M848,585.7c4.8-2.2,15.2-1.4,11.5,1.8s-16.8,11.2-9.8,10.8s16.8,0,16.8,0c-0.2-7.2,5.7-10.1,10-14.3"/>
	<path class="st7" d="M875.9,584.6c5.3,2.1,9.9,11.7,1.9,13.7s-11.2,0-11.2,0"/>
	<path class="st7" d="M889.5,582.8c2.5,5.2-1,12.7,0,17"/>
	<path class="st7" d="M897.8,583.9c8,0.1,16.5-1.2,5,15.9"/>
	<line class="st7" x1="899.5" y1="592.7" x2="912.2" y2="592.4"/>
	<path class="st0" d="M463.7,371.5c0,0-14-20.8-19-24.8s-7.7,8.7-7.7,8.7"/>
	<path class="st4" d="M610,383v14l-5.7,3.9c0,0-5.5-0.1-12.1,0s-5.7-6.4,0-7.9l-17.9-2.1l-1,4.4l-5.7-1l-5.7,15h-4.1l6.8-22.3
		c-4.9-0.5-3.6-9.9,2.4-10.3"/>
	<path class="st4" d="M653.7,443c-8.5-16.3-64.2-32.5-89.2-33.7s0,0,0,0h-6.6l-0.9,3l-20.4-4.3l-6.1,6.9c0,0,93.2,12.6,110.5,30.4
		l0,0c0,0,5.8,0.1,13.1,2.1l0,0"/>
	<path class="st4" d="M769.7,366.9l-6.6-7.5c-0.6-0.7-1.7-0.4-1.9,0.5l-3.7,19.2c-0.2,1.1-0.1,2.7,0.7,1.9l11.8-11.7
		C770.3,368.8,770.1,367.3,769.7,366.9z"/>
	<path class="st0" d="M683.5,401.8c0,0,5,6.8,8.5,6.5c3.5-0.3,6.3-10.6,9.7-9.3c3.3,1.2-2.6,31.3,5,39.7c-10.3-9.7-35.3-24-35.3-24
		L683.5,401.8z"/>
	<path class="st4" d="M533.8,423.9l2.5,10.8l39.3,28.7l11.5-20.1c63.3,4.3,104.1,46.8,110.3,64.3l17.3-2.2c0,0-18.5-53.3-140.5-77
		l9.7,14.7l-5.7,6.3L533.8,423.9z"/>
</g>
</svg>
