<?xml version="1.0" standalone="no"?>
<!DOCTYPE svg PUBLIC "-//W3C//DTD SVG 20010904//EN"
 "http://www.w3.org/TR/2001/REC-SVG-20010904/DTD/svg10.dtd">
<svg version="1.0" xmlns="http://www.w3.org/2000/svg"
 width="392.000000pt" height="392.000000pt" viewBox="0 0 392.000000 392.000000"
 preserveAspectRatio="xMidYMid meet">
<metadata>
Created by potrace 1.11, written by Peter Selinger 2001-2013
</metadata>
<g transform="translate(0.000000,392.000000) scale(0.100000,-0.100000)"
fill="#000000" stroke="none">
<path d="M1298 3895 c-34 -19 -58 -63 -58 -106 0 -34 95 -223 128 -252 10 -9
36 -23 57 -30 36 -13 43 -23 148 -218 60 -112 152 -292 204 -399 243 -501 288
-590 293 -590 3 0 37 31 75 70 l69 69 -84 138 c-46 76 -114 183 -150 238 -58
87 -280 464 -394 668 -35 62 -37 70 -26 97 7 17 10 44 6 61 -8 41 -102 212
-132 240 -29 28 -99 35 -136 14z"/>
<path d="M830 3569 c-66 -26 -101 -95 -77 -151 17 -39 136 -189 169 -212 12
-9 38 -16 58 -16 34 -1 41 -9 230 -256 107 -141 240 -322 296 -402 79 -117
312 -440 331 -462 2 -2 36 28 75 67 l71 71 -129 149 c-71 81 -178 202 -239
268 -60 67 -202 233 -315 370 l-204 250 2 51 c3 48 0 56 -49 120 -73 98 -109
134 -146 150 -37 16 -39 16 -73 3z"/>
<path d="M2455 2418 c-54 -19 -87 -49 -342 -301 l-252 -250 -58 25 c-98 43
-132 51 -208 46 -87 -6 -164 -44 -206 -102 -63 -86 -87 -193 -119 -538 -21
-218 -36 -302 -66 -361 -34 -64 -94 -146 -168 -224 l-75 -79 317 -317 c175
-174 323 -317 329 -317 7 0 41 25 75 57 135 121 297 212 560 315 325 126 602
305 793 511 151 162 175 284 89 454 -32 64 -35 75 -25 104 6 18 11 57 11 89 0
82 -36 149 -108 201 l-57 40 0 77 c0 55 -6 87 -19 112 -39 74 -124 140 -181
140 -24 0 -25 3 -25 53 0 118 -49 205 -142 251 -56 28 -76 30 -123 14z"/>
</g>
</svg>
